<svg width="45" height="39" viewBox="0 0 45 39" fill="none" xmlns="http://www.w3.org/2000/svg">
<path d="M2.27881 0.000276164C1.46853 -0.0137488 0.714858 0.507322 0.306368 1.36392C-0.102123 2.22054 -0.102123 3.28001 0.306368 4.13661C0.714858 4.99323 1.46853 5.51428 2.27881 5.50025H42.7212C43.5315 5.51428 44.2851 4.9932 44.6936 4.13661C45.1021 3.27998 45.1021 2.22052 44.6936 1.36392C44.2851 0.507294 43.5315 -0.0137488 42.7212 0.000276164H2.27881ZM2.27881 16.5003C1.46853 16.4863 0.714858 17.0073 0.306368 17.8639C-0.102123 18.7205 -0.102123 19.78 0.306368 20.6366C0.714858 21.4932 1.46853 22.0143 2.27881 22.0003H42.7212C43.5315 22.0143 44.2851 21.4932 44.6936 20.6366C45.1021 19.78 45.1021 18.7205 44.6936 17.8639C44.2851 17.0073 43.5315 16.4863 42.7212 16.5003H2.27881ZM2.27881 33.0003C1.46853 32.9863 0.714858 33.5073 0.306368 34.3639C-0.102123 35.2206 -0.102123 36.28 0.306368 37.1366C0.714858 37.9932 1.46853 38.5143 2.27881 38.5003H42.7212C43.5315 38.5143 44.2851 37.9932 44.6936 37.1366C45.1021 36.28 45.1021 35.2205 44.6936 34.3639C44.2851 33.5073 43.5315 32.9863 42.7212 33.0003H2.27881Z" fill="white"/>
</svg>
