<svg width="48" height="43" viewBox="0 0 48 43" fill="none" xmlns="http://www.w3.org/2000/svg">
<path d="M19.8086 0C19.1567 0 18.5444 0.276648 18.1281 0.758226C18.0858 0.806664 18.0511 0.86041 18.0241 0.917273L16.469 4.21205H8.1875C6.98146 4.21205 6 5.15696 6 6.31808V10.5301C6 11.6913 6.98146 12.6362 8.1875 12.6362H9.64583V37.2065C9.64583 38.3676 10.6273 39.3125 11.8333 39.3125H35.1667C36.3727 39.3125 37.3542 38.3676 37.3542 37.2065V12.6362H38.8125C40.0185 12.6362 41 11.6913 41 10.5301V6.31808C41 5.15696 40.0185 4.21205 38.8125 4.21205H30.5325L28.9773 0.917273C28.9503 0.86041 28.9149 0.805962 28.8733 0.758226C28.4562 0.276648 27.844 0 27.1928 0H19.8086ZM19.8086 1.40402H27.1914C27.381 1.40402 27.5614 1.47446 27.6956 1.59871L28.9303 4.21205H18.0697L19.3044 1.59871C19.4393 1.47446 19.619 1.40402 19.8086 1.40402ZM8.1875 5.61607H38.8125C39.2143 5.61607 39.5417 5.93057 39.5417 6.31808V10.5301C39.5417 10.9176 39.2143 11.2321 38.8125 11.2321H8.1875C7.78573 11.2321 7.45833 10.9176 7.45833 10.5301V6.31808C7.45833 5.93057 7.78573 5.61607 8.1875 5.61607ZM10.375 7.02009C9.9725 7.02009 9.64583 7.33389 9.64583 7.7221V9.12612C9.64583 9.51433 9.9725 9.82812 10.375 9.82812C10.7775 9.82812 11.1042 9.51433 11.1042 9.12612V7.7221C11.1042 7.33389 10.7775 7.02009 10.375 7.02009ZM14.0208 7.02009C13.6183 7.02009 13.2917 7.33389 13.2917 7.7221V9.12612C13.2917 9.51433 13.6183 9.82812 14.0208 9.82812C14.4233 9.82812 14.75 9.51433 14.75 9.12612V7.7221C14.75 7.33389 14.4233 7.02009 14.0208 7.02009ZM17.6667 7.02009C17.2642 7.02009 16.9375 7.33389 16.9375 7.7221V9.12612C16.9375 9.51433 17.2642 9.82812 17.6667 9.82812C18.0692 9.82812 18.3958 9.51433 18.3958 9.12612V7.7221C18.3958 7.33389 18.0692 7.02009 17.6667 7.02009ZM21.3125 7.02009C20.91 7.02009 20.5833 7.33389 20.5833 7.7221V9.12612C20.5833 9.51433 20.91 9.82812 21.3125 9.82812C21.715 9.82812 22.0417 9.51433 22.0417 9.12612V7.7221C22.0417 7.33389 21.715 7.02009 21.3125 7.02009ZM25.6875 7.02009C25.285 7.02009 24.9583 7.33389 24.9583 7.7221V9.12612C24.9583 9.51433 25.285 9.82812 25.6875 9.82812C26.09 9.82812 26.4167 9.51433 26.4167 9.12612V7.7221C26.4167 7.33389 26.09 7.02009 25.6875 7.02009ZM29.3333 7.02009C28.9308 7.02009 28.6042 7.33389 28.6042 7.7221V9.12612C28.6042 9.51433 28.9308 9.82812 29.3333 9.82812C29.7358 9.82812 30.0625 9.51433 30.0625 9.12612V7.7221C30.0625 7.33389 29.7358 7.02009 29.3333 7.02009ZM32.9792 7.02009C32.5767 7.02009 32.25 7.33389 32.25 7.7221V9.12612C32.25 9.51433 32.5767 9.82812 32.9792 9.82812C33.3817 9.82812 33.7083 9.51433 33.7083 9.12612V7.7221C33.7083 7.33389 33.3817 7.02009 32.9792 7.02009ZM36.625 7.02009C36.2225 7.02009 35.8958 7.33389 35.8958 7.7221V9.12612C35.8958 9.51433 36.2225 9.82812 36.625 9.82812C37.0275 9.82812 37.3542 9.51433 37.3542 9.12612V7.7221C37.3542 7.33389 37.0275 7.02009 36.625 7.02009ZM11.1042 12.6362H35.8958V37.2065C35.8958 37.594 35.5684 37.9085 35.1667 37.9085H11.8333C11.4316 37.9085 11.1042 37.594 11.1042 37.2065V36.5045H27.875C28.2775 36.5045 28.6042 36.1907 28.6042 35.8025C28.6042 35.4142 28.2775 35.1004 27.875 35.1004H11.1042V12.6362ZM14.75 16.8482C14.3475 16.8482 14.0208 17.162 14.0208 17.5502V25.9743C14.0208 26.3625 14.3475 26.6763 14.75 26.6763C15.1525 26.6763 15.4792 26.3625 15.4792 25.9743V17.5502C15.4792 17.162 15.1525 16.8482 14.75 16.8482ZM20.5833 16.8482C20.1808 16.8482 19.8542 17.162 19.8542 17.5502V31.5904C19.8542 31.9786 20.1808 32.2924 20.5833 32.2924C20.9858 32.2924 21.3125 31.9786 21.3125 31.5904V17.5502C21.3125 17.162 20.9858 16.8482 20.5833 16.8482ZM26.4167 16.8482C26.0142 16.8482 25.6875 17.162 25.6875 17.5502V31.5904C25.6875 31.9786 26.0142 32.2924 26.4167 32.2924C26.8192 32.2924 27.1458 31.9786 27.1458 31.5904V17.5502C27.1458 17.162 26.8192 16.8482 26.4167 16.8482ZM32.25 16.8482C31.8475 16.8482 31.5208 17.162 31.5208 17.5502V20.3583C31.5208 20.7465 31.8475 21.0603 32.25 21.0603C32.6525 21.0603 32.9792 20.7465 32.9792 20.3583V17.5502C32.9792 17.162 32.6525 16.8482 32.25 16.8482ZM32.25 22.4643C31.8475 22.4643 31.5208 22.7781 31.5208 23.1663V31.5904C31.5208 31.9786 31.8475 32.2924 32.25 32.2924C32.6525 32.2924 32.9792 31.9786 32.9792 31.5904V23.1663C32.9792 22.7781 32.6525 22.4643 32.25 22.4643ZM14.75 28.0804C14.3475 28.0804 14.0208 28.3942 14.0208 28.7824V31.5904C14.0208 31.9786 14.3475 32.2924 14.75 32.2924C15.1525 32.2924 15.4792 31.9786 15.4792 31.5904V28.7824C15.4792 28.3942 15.1525 28.0804 14.75 28.0804ZM30.7917 35.1004C30.3892 35.1004 30.0625 35.4142 30.0625 35.8025C30.0625 36.1907 30.3892 36.5045 30.7917 36.5045H33.7083C34.1108 36.5045 34.4375 36.1907 34.4375 35.8025C34.4375 35.4142 34.1108 35.1004 33.7083 35.1004H30.7917Z" fill="#494949"/>
</svg>
