<svg width="45" height="40" viewBox="0 0 45 40" fill="none" xmlns="http://www.w3.org/2000/svg">
<path d="M2.27881 0.750032C1.46853 0.736007 0.714858 1.25708 0.306368 2.11368C-0.102123 2.9703 -0.102123 4.02976 0.306368 4.88636C0.714858 5.74299 1.46853 6.26403 2.27881 6.25001H42.7212C43.5315 6.26403 44.2851 5.74296 44.6936 4.88636C45.1021 4.02974 45.1021 2.97027 44.6936 2.11368C44.2851 1.25705 43.5315 0.736007 42.7212 0.750032H2.27881ZM2.27881 17.25C1.46853 17.236 0.714858 17.7571 0.306368 18.6137C-0.102123 19.4703 -0.102123 20.5298 0.306368 21.3864C0.714858 22.243 1.46853 22.764 2.27881 22.75H42.7212C43.5315 22.764 44.2851 22.243 44.6936 21.3864C45.1021 20.5297 45.1021 19.4703 44.6936 18.6137C44.2851 17.7571 43.5315 17.236 42.7212 17.25H2.27881ZM2.27881 33.75C1.46853 33.736 0.714858 34.2571 0.306368 35.1137C-0.102123 35.9703 -0.102123 37.0298 0.306368 37.8864C0.714858 38.743 1.46853 39.264 2.27881 39.25H42.7212C43.5315 39.264 44.2851 38.743 44.6936 37.8864C45.1021 37.0297 45.1021 35.9703 44.6936 35.1137C44.2851 34.2571 43.5315 33.736 42.7212 33.75H2.27881Z" fill="#FF823B"/>
</svg>
