<svg width="71" height="66" viewBox="0 0 71 66" fill="none" xmlns="http://www.w3.org/2000/svg">
<g filter="url(#filter0_d_15_3)">
<path d="M15.2788 13.75C14.4685 13.736 13.7149 14.257 13.3064 15.1136C12.8979 15.9703 12.8979 17.0297 13.3064 17.8863C13.7149 18.743 14.4685 19.264 15.2788 19.25H55.7212C56.5315 19.264 57.2851 18.7429 57.6936 17.8863C58.1021 17.0297 58.1021 15.9702 57.6936 15.1136C57.2851 14.257 56.5315 13.736 55.7212 13.75H15.2788ZM15.2788 30.25C14.4685 30.236 13.7149 30.757 13.3064 31.6136C12.8979 32.4703 12.8979 33.5297 13.3064 34.3863C13.7149 35.243 14.4685 35.764 15.2788 35.75H55.7212C56.5315 35.764 57.2851 35.2429 57.6936 34.3863C58.1021 33.5297 58.1021 32.4702 57.6936 31.6136C57.2851 30.757 56.5315 30.236 55.7212 30.25H15.2788ZM15.2788 46.75C14.4685 46.736 13.7149 47.2571 13.3064 48.1137C12.8979 48.9703 12.8979 50.0297 13.3064 50.8863C13.7149 51.743 14.4685 52.264 15.2788 52.25H55.7212C56.5315 52.264 57.2851 51.7429 57.6936 50.8863C58.1021 50.0297 58.1021 48.9703 57.6936 48.1137C57.2851 47.257 56.5315 46.736 55.7212 46.75H15.2788Z" fill="white"/>
</g>
<defs>
<filter id="filter0_d_15_3" x="0" y="0" width="71" height="69" filterUnits="userSpaceOnUse" color-interpolation-filters="sRGB">
<feFlood flood-opacity="0" result="BackgroundImageFix"/>
<feColorMatrix in="SourceAlpha" type="matrix" values="0 0 0 0 0 0 0 0 0 0 0 0 0 0 0 0 0 0 127 0" result="hardAlpha"/>
<feOffset dy="3"/>
<feComposite in2="hardAlpha" operator="out"/>
<feColorMatrix type="matrix" values="0 0 0 0 0.933333 0 0 0 0 0.484747 0 0 0 0 0.0933333 0 0 0 1 0"/>
<feBlend mode="normal" in2="BackgroundImageFix" result="effect1_dropShadow_15_3"/>
<feBlend mode="normal" in="SourceGraphic" in2="effect1_dropShadow_15_3" result="shape"/>
</filter>
</defs>
</svg>
